PathFileType	4	(X/Y/Z)	pose_F01_0-94.trc
DataRate	CameraRate	NumFrames	NumMarkers	Units	OrigDataRate	OrigDataStartFrame	OrigNumFrames
30	30	13	21	m	30	37	94
Frame#	Time	CHip			RHip			RKnee			RAnkle			RBigToe			RSmallToe			RHeel			LHip			LKnee			LAnkle			LBigToe			LSmallToe			LHeel			Neck			Nose			RShoulder			RElbow			RWrist			LShoulder			LElbow			LWrist			
		X1	Y1	Z1	X2	Y2	Z2	X3	Y3	Z3	X4	Y4	Z4	X5	Y5	Z5	X6	Y6	Z6	X7	Y7	Z7	X8	Y8	Z8	X9	Y9	Z9	X10	Y10	Z10	X11	Y11	Z11	X12	Y12	Z12	X13	Y13	Z13	X14	Y14	Z14	X15	Y15	Z15	X16	Y16	Z16	X17	Y17	Z17	X18	Y18	Z18	X19	Y19	Z19	X20	Y20	Z20	X21	Y21	Z21	
37	1.2333333333333334	-0.2566277808771784	1.8898775867640154	-0.5884972364784229	-0.2727237779852814	1.8874629121319175	-0.5238821194093765																-0.24050327425157111	1.893893564473731	-0.6477187993634858	-0.24064189474096268	1.7343967942491507	-0.6675958543000651													-0.2483101482155185	2.0565604860558686	-0.5969065224892547	-0.23238888912693456	2.1105813563156928	-0.5508010182308583	-0.2763345292971676	2.0523318155033534	-0.5124468842657268	-1.6572536948426482	1.8771592578202874	0.984018622876489	-1.9176750889228604	1.8975395256848202	1.4762796740536217	-0.22265275447111513	2.0619029717295545	-0.6801555516661458	-0.1917234703479933	1.9919419206353774	-0.6643798901961397	-0.19617693685550555	1.9836701677137534	-0.5066924900138919
38	1.2666666666666666	-0.25885810435441553	1.8881802589456518	-0.5862237983380683	-0.27488153011136374	1.8860327413599463	-0.5215396205773808																-0.242630339948158	1.8939044205527946	-0.6456037235408348	-0.2406393304515078	1.7354093559207224	-0.6676841217804814													-0.2492170022768697	2.0567099818665215	-0.5998800811322209	-0.23433010067736348	2.1129137164605267	-0.5490963864581562	-0.2773693636766798	2.052428139103093	-0.5154793475733969	-1.6572536948426482	1.8771592578202874	0.984018622876489	-1.9176750889228604	1.8975395256848202	1.4762796740536217	-0.22276313421220204	2.0619713236698947	-0.6807777663720972	-0.1891169414805993	1.9957072574658454	-0.6759965365243263	-0.20517390088534093	2.0029695577149984	-0.5412453094520173
39	1.3	-0.25626809634548026	1.8901258670695524	-0.5854805395365626	-0.2741777072205167	1.8876497564725752	-0.5185943782859231																-0.24011385133943408	1.8964603260650177	-0.6450839374708901	-0.24063676616205287	1.7364219175922941	-0.6677723892608978													-0.24925649586076504	2.057957505680718	-0.6003940710991185	-0.2353115605225121	2.1131278550837305	-0.5521781938840304	-0.2793155568868965	2.0537447258677637	-0.5139264615173817	-1.6572536948426482	1.8771592578202874	0.984018622876489	-1.9176750889228604	1.8975395256848202	1.4762796740536217	-0.22062733031345372	2.063258801475641	-0.682922520515074	-0.18887535851626577	2.0015999105095093	-0.6857932068290398	-0.19337002460929778	2.0232028730262885	-0.5520923308281882
40	1.3333333333333333	-0.25807361904101966	1.8910727280581745	-0.5833708484218684	-0.27417107989327444	1.887253186757147	-0.5186271157712511																-0.2420785659288562	1.8949004115606118	-0.6425201381677065	-0.24071943446277058	1.735793019053938	-0.6676219192611123													-0.25219868955949437	2.058160706776814	-0.6013368383634384	-0.23618333941938338	2.114323140316949	-0.5551616028907834	-0.28036176700709053	2.053904665723671	-0.51701163640831	-1.6572536948426482	1.8771592578202874	0.984018622876489	-1.9176750889228604	1.8975395256848202	1.4762796740536217	-0.22151945913402513	2.0647685574006114	-0.6862542950873144	-0.18573861923858057	2.0078176778395775	-0.6861841823549528	-0.18494441668979586	2.0338429273759475	-0.5731608732774403
41	1.3666666666666667	-0.258074176130832	1.8914016506583862	-0.5834266702492648	-0.2730398163789965	1.8887477368578325	-0.5156388841256359																-0.24192979991528885	1.8965152626835158	-0.6427415189478408	-0.24080210276348826	1.7351641205155817	-0.6674714492613268													-0.2523309833602816	2.0580769563963797	-0.601331250079086	-0.23519579494038073	2.1158767375610608	-0.5607893703486811	-0.2803608425610265	2.05258622603955	-0.5164475858199056	-1.6572536948426482	1.8771592578202874	0.984018622876489	-1.9176750889228604	1.8975395256848202	1.4762796740536217	-0.22360227034809058	2.065684654643354	-0.6840898853792701	-0.18349091195281086	2.009004803413432	-0.6883652750643069	-0.17799227517248925	2.043217438598754	-0.570743955939183
42	1.4	-0.25730891695776176	1.8901445942651207	-0.5801781790427023	-0.2733632433021362	1.8861754610755732	-0.5153477132880145																-0.24206015841864215	1.8951219659041927	-0.6425053133196792	-0.24088477106420597	1.7345352219772252	-0.6673209792615413													-0.2564174960381066	2.0567251817645618	-0.5966032175121065	-0.2360513672429949	2.1171928665129207	-0.5637400407743769	-0.2804016430903995	2.0528263155719793	-0.5165252882481912	-1.6572536948426482	1.8771592578202874	0.984018622876489	-1.9176750889228604	1.8975395256848202	1.4762796740536217	-0.2287895929196811	2.065735210617213	-0.6825380504500335	-0.18425563809049192	2.0115370235718926	-0.6917740244934588	-0.18030902567939772	2.0459062435607507	-0.5883682274834823
43	1.4333333333333333	-0.25702462335260645	1.88987606173004	-0.5801303946344976	-0.27304976067665176	1.885798166687302	-0.5151753975391437																-0.24188373716184117	1.895986796148664	-0.6426987221322531	-0.24096743936492365	1.733906323438869	-0.6671705092617559													-0.256417882946999	2.0567794904846064	-0.5964599261160268	-0.2368866262109198	2.118383136423041	-0.566616254845306	-0.2804479365748752	2.0517158024746114	-0.5165293849238899	-1.6572536948426482	1.8771592578202874	0.984018622876489	-1.9176750889228604	1.8975395256848202	1.4762796740536217	-0.2309585880446341	2.0668291701477615	-0.6808471284507824	-0.1858669770382583	2.0144208462662756	-0.6982674768531505	-0.18987674202220436	2.050577421199466	-0.5937744450511173
44	1.4666666666666666	-0.25552578512495333	1.8900536257358154	-0.582316808301817	-0.2725800869975303	1.885416645191595	-0.5122312482555162																-0.2403648339010816	1.8930520085511175	-0.6447181841753131	-0.24105010766564136	1.7332774249005127	-0.6670200392619704													-0.2544311751143677	2.0579391539779803	-0.5992024076834145	-0.23688451068813907	2.1198119043131642	-0.5672025044004527	-0.2805069641203611	2.052923688391324	-0.5170296593249101	-1.6572536948426482	1.8771592578202874	0.984018622876489	-1.9176750889228604	1.8975395256848202	1.4762796740536217	-0.22743384581768059	2.0684160733926817	-0.6881743217102044	-0.18327811985579168	2.0164157033744017	-0.6894558919307852	-0.19014606932560912	2.0559428534900954	-0.5875580324395129
45	1.5	-0.2542221830225381	1.892775329677075	-0.5795238557087541	-0.2701954296878694	1.8870984610807269	-0.5143519367875774																-0.2389606652148526	1.8970832249364424	-0.6420257037686152	-0.2407505555163651	1.7345473692736684	-0.6660833938743242													-0.25735940479417024	2.058157068916913	-0.6001353413964283	-0.23488339451990578	2.1222461917040345	-0.5697697365452637	-0.2803887857568168	2.0543430766533692	-0.5170216593138741	-1.6572536948426482	1.8771592578202874	0.984018622876489	-1.9176750889228604	1.8975395256848202	1.4762796740536217	-0.23051575434555255	2.067393088255538	-0.6891030993752142	-0.18613020584488357	2.019217386390556	-0.6906392579672592	-0.1865185306467671	2.0515041551903677	-0.6118321925588047
46	1.5333333333333334	-0.25521320140024206	1.8902078985787591	-0.582290903410226	-0.2722880096600978	1.8855070980131077	-0.5121679259383255																-0.23986295547015624	1.8942385262818084	-0.6448257922739536	-0.24045100336708883	1.7358173136468238	-0.665146748486678													-0.2593399829351281	2.0606700514061567	-0.5983164628607665	-0.2357822436641321	2.123785554764771	-0.5734020382823288	-0.2824189132672601	2.0542174704032212	-0.5154149017247441	-1.6572536948426482	1.8771592578202874	0.984018622876489	-1.9176750889228604	1.8975395256848202	1.4762796740536217	-0.23169779618228686	2.0709974068155614	-0.6840742033005465	-0.18442424894807818	2.0229899741358346	-0.6851677800515197	-0.19244714374907604	2.0690211926060753	-0.5989297576806943
47	1.5666666666666667	-0.25442160877414355	1.8925083057059184	-0.579649396026829	-0.2705074912608774	1.8878881609198144	-0.5146072938679338																-0.23694733374018906	1.8978893584489118	-0.6444780131672831	-0.24015145121781256	1.7370872580199794	-0.6642101030990318													-0.2593758608616619	2.0656963883039183	-0.5997166626442121	-0.23645582053127273	2.1288275382219872	-0.576331397253486	-0.28067204966393283	2.056764954637125	-0.5187269107238017	-1.6572536948426482	1.8771592578202874	0.984018622876489	-1.9176750889228604	1.8975395256848202	1.4762796740536217	-0.23375607403226742	2.073576351213006	-0.6821961364172431	-0.1855428899310189	2.0301918020772347	-0.6808339794557045	-0.20786522621571887	2.0821941084476725	-0.5968324528508477
48	1.6	-0.2545568145631944	1.8912125786502305	-0.5794826406424392	-0.2706529219891993	1.8866357158381106	-0.5144627478695948																-0.23722620095534705	1.8951657618083568	-0.6442217697692388	-0.23813548292101303	1.7342618029196406	-0.6659785252339211													-0.25946777169173874	2.061960650736261	-0.5987358403583415	-0.23846623562888375	2.1322796309970236	-0.5753583363600744	-0.28247334474206337	2.0543819660713836	-0.515335741535202	-1.6572536948426482	1.8771592578202874	0.984018622876489	-1.9176750889228604	1.8975395256848202	1.4762796740536217	-0.2346403607006199	2.0736495074497476	-0.685108957497103	-0.18898905743642028	2.03904091698908	-0.6850136823858486	-0.21254898643380846	2.1007626808670543	-0.6085498290794974
49	1.6333333333333333	-0.2546548524792316	1.8923081112115738	-0.579761655705616	-0.27067520255662575	1.886270151383683	-0.5145464280674392																-0.2371633365442582	1.897678607385412	-0.6445496563398068	-0.23816126227712575	1.734923693828905	-0.6660804701301177													-0.26045221698728077	2.059033056804705	-0.5925995423539286	-0.2413990153360846	2.1337925365411117	-0.5767423234926988	-0.28139819567371493	2.0501367631020275	-0.510711989941308	-1.6572536948426482	1.8771592578202874	0.984018622876489	-1.9176750889228604	1.8975395256848202	1.4762796740536217	-0.23471096084934298	2.0750066067129915	-0.6855087762287058	-0.18759756292196098	2.052526681056166	-0.6932140960197966	-0.2065140638048408	2.0976798126857825	-0.6058118534534878
